<svg xmlns="http://www.w3.org/2000/svg" viewBox="0 0 534.86 363.5"><defs><style>.cls-1{fill:none;stroke:#fff;stroke-miterlimit:10;}.cls-2{font-size:33.49px;}.cls-2,.cls-3,.cls-4{fill:#fff;}.cls-2,.cls-3{font-family:Rift-Regular, Rift;}.cls-3{font-size:39px;}</style></defs><g id="Layer_2" data-name="Layer 2"><g id="Layer_1-2" data-name="Layer 1"><circle class="cls-1" cx="276.82" cy="184.38" r="174.69" transform="translate(-49.3 249.74) rotate(-45)"/><path class="cls-1" d="M292.91,26.84A156.6,156.6,0,0,1,408.24,264.26"/><path class="cls-1" d="M241.25,335.31a156.59,156.59,0,0,1-87-252.88"/><circle class="cls-1" cx="274.79" cy="182.35" r="138.59" transform="translate(-48.46 247.72) rotate(-45)"/><text class="cls-2" transform="matrix(0.73, -0.68, 0.68, 0.73, 170.44, 84.67)">W</text><text class="cls-2" transform="translate(184.78 71.55) rotate(-36.75)">E</text><text class="cls-2" transform="translate(193.9 64.7) rotate(-32.43)">L</text><text class="cls-2" transform="translate(202.35 59.18) rotate(-27.77)">C</text><text class="cls-2" transform="matrix(0.92, -0.38, 0.38, 0.92, 213.81, 53.05)">O</text><text class="cls-2" transform="translate(225.78 47.83) rotate(-16.24)">M</text><text class="cls-2" transform="translate(243.02 42.89) rotate(-10.4)">E</text><text class="cls-2" transform="translate(254.59 40.84) rotate(-7.16)"> </text><text class="cls-2" transform="translate(258.87 40.19) rotate(-4.11)">T</text><text class="cls-2" transform="translate(268.94 39.33) rotate(0.6)">O</text><text class="cls-3" transform="translate(249.66 350.77) rotate(6.17)">F</text><text class="cls-3" transform="translate(263.42 352.35) rotate(0.95)">o</text><text class="cls-3" transform="matrix(1, -0.09, 0.09, 1, 281.28, 352.63)">u</text><text class="cls-3" transform="matrix(0.98, -0.19, 0.19, 0.98, 299.08, 351.1)">n</text><text class="cls-3" transform="translate(317.44 347.47) rotate(-17.25)">d</text><text class="cls-3" transform="translate(334.3 342.17) rotate(-22.78)">e</text><text class="cls-3" transform="translate(348.16 336.41) rotate(-28.28)">d</text><text class="cls-3" transform="matrix(0.85, -0.53, 0.53, 0.85, 362.76, 328.38)"> </text><text class="cls-3" transform="translate(366.18 326.28) rotate(-33.33)"> </text><text class="cls-3" transform="translate(370.16 323.78) rotate(-35.88) scale(0.7)">C</text><text class="cls-3" transform="matrix(0.78, -0.63, 0.63, 0.78, 379.5, 316.95)">.</text><text class="cls-3" transform="matrix(0.76, -0.65, 0.65, 0.76, 382.68, 314.45)">1</text><text class="cls-3" transform="translate(388.32 309.85) rotate(-44.2)">8</text><text class="cls-3" transform="translate(399.79 298.7) rotate(-49.54)">8</text><text class="cls-3" transform="translate(409.52 287.14) rotate(-53.28)">1</text><path class="cls-4" d="M184.24,154.23c-5.06,4.61-10.25,9.33-15.62,13.78a38.58,38.58,0,0,1-9.24,5.71,26.17,26.17,0,0,1-5.12,1.5,29.41,29.41,0,0,1-7.6.45,12.46,12.46,0,0,1-8.5-4,15.45,15.45,0,0,1-3.63-6.24l-.45-1.8A45,45,0,0,1,133,149.17a99.48,99.48,0,0,1,10.64-37.7,56.91,56.91,0,0,1,8.31-12.12,23.88,23.88,0,0,1,5.93-4.85,9.16,9.16,0,0,1,2.15-.87,6.23,6.23,0,0,1,3.75.26,9.72,9.72,0,0,1,6.67,6.6c.1.34.13.69.23,1a25.38,25.38,0,0,1,.41,6.22,49,49,0,0,1-2.07,12,6.78,6.78,0,0,1-.49,1.35c-.69,1.55-.89,2.25-2,2.52a11.71,11.71,0,0,1-2.34.11c-.39,0-.8.12-1.19.13-.88,0-.91,0-1.52-1a2.88,2.88,0,0,0,2-2.26c1.87-5.65,3.13-11.5,2.68-17.24A34.73,34.73,0,0,0,165,98.23a6.26,6.26,0,0,0-.5-1c-.57-1-1-1.22-1.61-1.06a8.54,8.54,0,0,0-1.05.39,16.14,16.14,0,0,0-4.49,3.51,56.82,56.82,0,0,0-8.56,12.58c-5.19,12-8.51,22.23-10.23,34.79a44.92,44.92,0,0,0-.15,11.36,28.22,28.22,0,0,0,.64,3.84,21.45,21.45,0,0,0,2.48,5.76,12.28,12.28,0,0,0,3.82,3.95,7.54,7.54,0,0,0,5.53,1.24l.68-.13a25.82,25.82,0,0,0,5.27-1.87,45.37,45.37,0,0,0,7-4.6c5.29-4.16,10.21-8.63,15.12-13.06,2.44-2.13,4.9-4.37,7.36-6.56,1.22-1,2.54-1.92,3.85-2.87a5.41,5.41,0,0,1,1.64-.75,9.35,9.35,0,0,1,2.66-.31,9,9,0,0,1,1.91.71C191.42,147.22,188,150.85,184.24,154.23Z"/><path class="cls-4" d="M200.3,147.59a27.69,27.69,0,0,0,2.36-3.72,58.06,58.06,0,0,0,5.18-13.68c.27-1.05.42-2.21.61-3.46.53.27.86.46,1.3.69a.83.83,0,0,1,.57-.71,2.43,2.43,0,0,1,1.16.14,2.77,2.77,0,0,1,1.89,1.3,1.42,1.42,0,0,1,.11.49,9.42,9.42,0,0,1-.13,1.6,56.16,56.16,0,0,1-6.62,17.34,14.07,14.07,0,0,1-2.33,3.07,5.88,5.88,0,0,1-2.32,1.58,7.06,7.06,0,0,1-3.65-.26,6.31,6.31,0,0,1-4.85-4.06c-.1-.27-.12-.56-.21-.83-.3-1.31-.58-2.55-.85-3.8-.1-.26-.09-.49-.19-.75s-.44-.76-1.33-.58c-.26,0-.64-.37-.89-.56s-.24-.45-.64-.34l-.47.13c-.47.13-.87-.28-1-.75l-.05-.13a19.46,19.46,0,0,1,0-2.42,35.94,35.94,0,0,1,2.22-9.2,2.61,2.61,0,0,1,1.66-1.73,3.56,3.56,0,0,1,2.31.36,3.74,3.74,0,0,1,2.16,2,2,2,0,0,1,.16.69c.07,2,.14,4.1.37,6.15.37,3.27.66,6.73,1.15,9.9a28.36,28.36,0,0,0,1,3A8.77,8.77,0,0,0,200.3,147.59Zm-8.22-34.32a2.55,2.55,0,0,1,1.44,1.56,4.4,4.4,0,0,1,.18,1c0,2.64.15,5.33.27,8.24-1.05-.36-2-.67-3.05-1.1l-.3.09c-.91.26-1.46.12-1.69-.54a4,4,0,0,1-.14-.92c-.21-2.32-.43-4.75-.59-7a7.18,7.18,0,0,1,.27-1.84C191.11,112.83,191.31,112.92,192.08,113.27Zm3.1,34.7c-.19-.51-.28-.76-.46-1.27l-.08,0c.18.5.27.75.46,1.26Z"/><path class="cls-4" d="M188.81,112.77A3.32,3.32,0,0,0,187.7,114a1.28,1.28,0,0,1-.76.66,1.16,1.16,0,0,1-.66,0,5.08,5.08,0,0,1-2.93-2.47l-.06-.21a1,1,0,0,1,.41-1.21,12.23,12.23,0,0,1,2.34-1.69c4.8-2.77,9.61-5.57,14.26-8.41.6-.35,1.12-.67,1.72-1a145.52,145.52,0,0,1,.56-16.82,3.18,3.18,0,0,1,.32-.41,7.87,7.87,0,0,1,2.27.1,2.63,2.63,0,0,1,1.67,1.58,3.18,3.18,0,0,1,.19,1.13c.15,3.3.86,6.89.8,9.86,0,.27.08.64.11,1.15,1.27-.67,2.32-1.26,3.44-1.88,4.49-2.42,9-4.93,13.37-7.41.88-.57,1.89-.82,2.79-1.34l.41-.16a2.18,2.18,0,0,1,3,1.15,3.87,3.87,0,0,1,.24,1.11,7.42,7.42,0,0,1,0,1.23c-7.75,3.53-15,8.18-22.61,12.45,0,.74.07,1.41.16,2.11a178,178,0,0,0,10.13,40.24c.3.72.53,1.47.83,2.18,1.05,2.49,2.31,4.84,3.49,7.11a11.5,11.5,0,0,0,4.47,5.21,5.76,5.76,0,0,1-2.09,1.31A3.78,3.78,0,0,1,221,158.4a73.26,73.26,0,0,1-4-6.75c-.74-1.52-1.41-3.18-2.06-4.75a131.43,131.43,0,0,1-6.25-19.67c-1.28-5.44-2.21-10.94-3.28-16.38-.12-.33-.13-.77-.25-1.1a1.62,1.62,0,0,0-1-.93c-.38-.15-.61-.76-.8-1.29l-.25-.66c-.22-.6-.3-1.24-.52-2.06C197.86,107.48,193.2,109.87,188.81,112.77Z"/><path class="cls-4" d="M225.82,125a2.54,2.54,0,0,0,.3,1.09,14.91,14.91,0,0,0,3.36,4.72,12.23,12.23,0,0,0,1.15-2.16,69.06,69.06,0,0,0,1.8-7.85c.39-2.79.42-5.6.69-8.43a43.65,43.65,0,0,1,.89-6.11,4.23,4.23,0,0,1,2.49-3.05,5.17,5.17,0,0,1,3.9.07,9.82,9.82,0,0,1,4.1,3.33,33.56,33.56,0,0,1,3.44,5.74c.46,1,.89,1.85,1.28,2.83l.81,1.65,2.31-2.76a9.51,9.51,0,0,1,3.34-2.76c.21-.1.53-.16.74-.26a4.15,4.15,0,0,1,3.64.61,1,1,0,0,1,.3.41c.13.25.19.38.33.63l-.29.13a8.87,8.87,0,0,0-3.26,2.77c-1.36,1.83-2.67,3.79-4.07,5.61a3,3,0,0,0-.44,3,110.79,110.79,0,0,1,5.2,20.2,40.36,40.36,0,0,1,.24,11.62,19.6,19.6,0,0,1-2.81,7.92,13.06,13.06,0,0,1-6.49,5.24,18.28,18.28,0,0,1-6.15,1.15,5.44,5.44,0,0,1-4.89-2.67,14.11,14.11,0,0,1-.95-1.62,13.77,13.77,0,0,1-1.11-4.19,43,43,0,0,1,.06-9.88,75.61,75.61,0,0,1,10.09-28.45,3.37,3.37,0,0,0,.34-3,74.32,74.32,0,0,0-3.09-8,31.37,31.37,0,0,0-2.58-4.58c-.28-.42-.66-.88-1.1-1.46a5.49,5.49,0,0,0-.5,1.12c-.28,1.79-.54,3.65-.72,5.47-.28,2.75-.19,5.55-.59,8.28a64.08,64.08,0,0,1-1.65,7.68,10.61,10.61,0,0,1-1.75,3.31,2.54,2.54,0,0,1-1.31,1,3.17,3.17,0,0,1-1.59.21c-1.21-.15-2.6-.24-3.79-.42a5.32,5.32,0,0,1-3.1-1.89,29.46,29.46,0,0,1-4.14-6.92,20.72,20.72,0,0,1-.74-2,31.53,31.53,0,0,1-.93-4.09,1.8,1.8,0,0,1,1-2.17A3.3,3.3,0,0,1,221,116a3.53,3.53,0,0,1,3.32,1.65c.51,1,1,2,1.44,3.15.54,1.28.82,1.91,1.37,3.18.08.2-.05.47-.12.72A4.84,4.84,0,0,0,225.82,125Zm22.28,4.72a8.94,8.94,0,0,0-.56,1.07,64,64,0,0,0-6.26,22,61.84,61.84,0,0,0,.18,8.62,8.81,8.81,0,0,0,.89,3.22,12.66,12.66,0,0,0,1,1.61c1,1.36,2,1.82,3.08,1.43a5.84,5.84,0,0,0,2-1.59,15.55,15.55,0,0,0,3.51-6.9,30.7,30.7,0,0,0,.74-9.05,79.07,79.07,0,0,0-2.8-16.72c-.34-1.28-.7-2.69-1.15-4.18C248.29,129.57,248.14,129.63,248.1,129.72ZM242.64,109l.45,1,.07,0-.45-1Z"/><path class="cls-4" d="M295.72,89.52A4.57,4.57,0,0,1,297,88.39a2.75,2.75,0,0,1,.63-.28,2,2,0,0,1,1.5,0,2.18,2.18,0,0,0,1.11.18c.44,0,.75,0,.87.23s0,.49-.19.84-.45.58-.71.89c-1.78,1.92-3.55,3.88-5.42,5.72a2,2,0,0,0-.78,2.28,32.39,32.39,0,0,1,.9,10.18,23.42,23.42,0,0,1-.69,3.57,3.37,3.37,0,0,1-1.78,2.14,3.86,3.86,0,0,1-.75.31c-3.19,1-5.73.48-7.3-1.89a13.38,13.38,0,0,1-.92-1.43,19.56,19.56,0,0,1-2.26-6c0-.22-.18-.47-.28-.81-1.22.07-2.41.19-3.59.15-2.78,0-4.64-.85-5.69-2.77a9.07,9.07,0,0,1-.64-1.81A17.51,17.51,0,0,1,272.82,86a7.29,7.29,0,0,1,3-3,7.7,7.7,0,0,1,3.75-.79,11.43,11.43,0,0,1,6.47,2.2A16,16,0,0,1,290.41,89c.93,1.55,1.4,2.32,2.34,3.87C293.77,91.74,294.71,90.65,295.72,89.52Zm-7.44,6.66a21.91,21.91,0,0,0-2.35-5.94c-.4-.67-.86-1.3-1.31-1.94a12.8,12.8,0,0,0-4-3.51c-.68-.28-1-.42-1.41-.21a1.94,1.94,0,0,0-.66.66A8.58,8.58,0,0,0,277,87.62a18,18,0,0,0-1.24,11.16,8.72,8.72,0,0,0,.72,1.93l.14.24c.86,1.54,1.8,1.79,3.6.87l.27-.14a23.66,23.66,0,0,1,.59-4.11,2.65,2.65,0,0,1,1.41-1.84,3.06,3.06,0,0,1,2.37-.21c1.09.35,2.18.84,3.47,1.35C288.32,96.55,288.39,96.36,288.28,96.18Zm.11,15.49c-.14-.25-.22-.37-.36-.61l-.07,0c.14.25.22.37.36.61Zm.55-11-2.13,1.12a1.33,1.33,0,0,0-.84,1.64c.56,1.83,1.18,3.77,1.72,5.55a3,3,0,0,0,.32.7c.29.49.69,1,1.08,1.67C290.12,108.06,290,102.32,288.94,100.62Zm.27-12a3.19,3.19,0,0,1-.41-.83l-.13.08C288.81,88.11,289,88.32,289.21,88.62Z"/><path class="cls-4" d="M302.47,88.91c.26.83.52,1.82.82,2.7a27,27,0,0,0,6.71-2.8A28.08,28.08,0,0,0,315,85a39,39,0,0,0,5.55-6.48A4.24,4.24,0,0,1,321.87,77c1-.66,2.26-.62,3.8,0-1.56,3.46-4.41,6.22-7.3,8.93a28.4,28.4,0,0,1-4.55,3.46,39.19,39.19,0,0,1-6,2.94,7.84,7.84,0,0,0,1.27.81,55.32,55.32,0,0,1,18.32,15.52c.45.63,1,1.23,1.46,1.92a38,38,0,0,1,5.18,9.6,32.09,32.09,0,0,1,1.12,5.36,3.25,3.25,0,0,1-1.67,3.4,6.1,6.1,0,0,1-1,.45,20.34,20.34,0,0,1-4.4,1,5.42,5.42,0,0,1-2.47-.77,40.72,40.72,0,0,1-12.48-10.46,61.21,61.21,0,0,1-4.13-5.71,96.66,96.66,0,0,1-8.37-16.43,103.19,103.19,0,0,1-7.09-27.7,60.35,60.35,0,0,1-.39-7,1.86,1.86,0,0,1,.68-1.8,3,3,0,0,1,2.44.09,3.38,3.38,0,0,1,1.82,1.28,3.51,3.51,0,0,1,.48,1.43c.44,2.2,1,4.49,1.49,6.75,1.92,9.36,1.85,9.47,5.56,17.75C304.56,88.19,303.58,88.51,302.47,88.91Zm2.66,7.59c1.35,3,2.57,6,4.05,9a72,72,0,0,0,4.45,7.63,51.09,51.09,0,0,0,7.26,8.87,60.38,60.38,0,0,0,6.13,4.94,17.21,17.21,0,0,0,2.73,1.27,11.7,11.7,0,0,0,0-2.2,28,28,0,0,0-1.25-4.78,44.73,44.73,0,0,0-5-9.28,57.24,57.24,0,0,0-11-11.69,28.82,28.82,0,0,0-7.6-4.63C304.92,95.88,305,96.16,305.13,96.5Z"/><path class="cls-4" d="M66.77,207.19A276,276,0,0,0,24.83,227.9c-5.35,3.68-10,7.78-13.19,12.66a15.75,15.75,0,0,0-2.8,9.8c.24,2.92,2.1,5.56,6,7.44s8,3.88,12.3,5.57c2.63,1.05,4.08,2.26,4.38,4.24.1.62.72,1.13,1.38,1.89a7.12,7.12,0,0,1-2.39-.32c-8.33-2.77-16.34-6.33-22.6-11.35C2.82,253.75.47,249.45.06,245.09a16.55,16.55,0,0,1,.4-5.28c1.11-4.84,4.58-9,8.67-12.76a92.22,92.22,0,0,1,21.92-13.89c25.8-12.32,53.26-20.77,81.25-26.38,3.6-.76,7.2-1.43,10.85-1.9a93.3,93.3,0,0,1,16.13-.7,62.88,62.88,0,0,1,10.8,1.41c8.51,1.33,18.64,8.43,21.37,16.94a15.08,15.08,0,0,1,.73,2.6c1.71,7.8.22,15.4-2.44,23-7.39,21.23-20.77,38.2-36.45,53.88a238.9,238.9,0,0,1-29.53,22.18,101.8,101.8,0,0,1-22,9.34c-.53.14-.85.4-.91.9,2-.45,3.78-.9,5.75-1.37a96.49,96.49,0,0,0,27.71-14c18.06-13.29,33.93-28.21,46-47.29a18.41,18.41,0,0,1,2.35-2.42c-2,3.37-3.68,6.78-6,10-13.63,19.3-30.76,33.92-50.6,46.45a90.49,90.49,0,0,1-23.53,9.36c-2,.46-3.57,1-3.35,2.61.5,5.66.8,11.2,2.36,16.94a44.3,44.3,0,0,0,1.7,4.75c.09.29.13.44.21.73.3,1.1.61,2.2,3.34,2.69.19,0,.33.48.47,1,.2.69.3,1,.49,1.71-3.75-.55-6.67-.16-9.84-.94s-5.19-2.08-5.82-3.89c-1.07-3.1-2-6.37-2.86-9.56L68.76,329a58.35,58.35,0,0,1-1.36-10.21c-.09-.37,0-.86-.1-1.23-.3-1.23-1.14-2.32-3.24-3.15-1.47-.59-2.38-1.2-2.57-2.06a1.53,1.53,0,0,1,.42-1.49c1.48-.14,3.13-.41,5-.7a363.06,363.06,0,0,1,5.46-60,6.28,6.28,0,0,0-3.11-.78,6.05,6.05,0,0,0-2.47.68,34.59,34.59,0,0,0-3.84-1c-1.19-.21-1.89-.83-2-1.57l-.07-.37a7.28,7.28,0,0,1,.53-1.85A367.08,367.08,0,0,1,79.1,206.28l1.4-3a3,3,0,0,1-.73-.46c-3.2,1-6.28,1.86-9.55,2.69,2.92-.94,5.81-2,8.67-3.14.89-.41,2.32-.48,2.74-1.73-1.23.31-2,.46-2.76.74C68.19,204.9,57.46,208.61,47.19,213c-9.28,3.92-19.27,9-27.44,15.05-6.44,4.81-11.3,10.23-12.48,17.43a11.45,11.45,0,0,0,1.39-1.75A25.22,25.22,0,0,1,17,232.15a99.34,99.34,0,0,1,11-7.92c12.79-7.9,26.68-13.22,40.7-18.44.46-.13,1.11-.15,1.73-.29C69.17,206,68,206.67,66.77,207.19Zm16.77,99.05c4.57-2.06,9.5-4.07,13.73-6.45,21.47-13.5,38.33-29,53.16-49.62,6.52-11.11,11.28-20.7,14.27-32.74a35.68,35.68,0,0,0,.28-15.57l-.47-1.41c-1.54-4.7-5-7.86-11.46-9.17-.86-.22-1.73-.43-2.41-.56-8.46-1.61-16.67-.89-24.92.13-4.11.51-8.27,1.16-12.29,1.6-.15,0-.28.16-.56.31l1,.26c-1.11,0-2.38,0-3.46.12a64.8,64.8,0,0,0-10.33,2.2c-4.49,1.2-9,2.55-13.79,3.68a12.59,12.59,0,0,1,2.16,1.23c.57.45,1.05,1.28,1.55,1.37,2,.61,2.87,1.53,3.09,2.63a5,5,0,0,1-.08,2c-.67,3-1.25,6.61-2.06,9.86-7,28.55-11.59,56.5-12.26,85.92-.13,1.73.1,3.45.12,5.8C80.92,307.1,82.35,306.79,83.54,306.24Zm82.37-63.89a20.49,20.49,0,0,1-3.2,7C162.3,246.64,164.8,244.69,165.91,242.35Z"/><path class="cls-4" d="M182.16,246.59a5.86,5.86,0,0,1-2-.07,18.28,18.28,0,0,0-3-.77,2.72,2.72,0,0,1-2.51-1.49,1.93,1.93,0,0,1-.14-.85c.24-1.52,0-3.39.25-5.07,2.11-16,6.34-30.4,12.05-45.5,1-2.14,1.54-2.9,2.73-3.2a24.88,24.88,0,0,1,3.54-.14,2.59,2.59,0,0,1,1.88.65,14.59,14.59,0,0,0,3.13,1.71,2.6,2.6,0,0,1,1.27,1.56,1.93,1.93,0,0,1,.22,1,33.17,33.17,0,0,1,.14,5.8c-.66,14.4-1.55,28.82-1.89,43.19-.36,15.1,1.55,29.8,4.34,44.64.05.11-.07.27,0,.5a2.07,2.07,0,0,0,.93.79,20.05,20.05,0,0,1,.86-2.86c1.44-4.14,2.63-8.35,4.18-12.54a7.42,7.42,0,0,1,4.29-4.39,13.94,13.94,0,0,1,2.1-.79,19.57,19.57,0,0,1,13.22,1.77,53.1,53.1,0,0,1,5.13,3.79c2.27,1.75,4.61,3.79,7.06,5.5,1.76,1.15,3.76,2,6.24,3.27,1.42-1.47,3-2.72,3.9-3.92,4.58-6.35,8.15-12.86,9-19.63a3.47,3.47,0,0,1,2.43-3.05,6.83,6.83,0,0,1,1.41-.61c1.79-.63,3.13-.32,5.25,1a14.14,14.14,0,0,0,2.06-.87,3.65,3.65,0,0,1,.82.75,2.39,2.39,0,0,0,.12.22,22,22,0,0,1-.14,4.63,47.06,47.06,0,0,1-8.52,17.54c-2.08,2.77-5.71,5-9.66,6.24-6,1.9-13.26,1.86-18.68-.69-3.54-1.55-6.41-3.82-9.37-5.95a41.17,41.17,0,0,1-4.48-3.76,10.7,10.7,0,0,0-1.45,3.06c-1.39,6.09-2.89,12.42-4.28,18.39-.8,3.46-1.48,7.11-2.21,10.57-.5,2.37-1.68,3.71-4.4,4.34a18.1,18.1,0,0,1-4,.42c-5,.06-6.95-.35-8.21-3.23l-.25-.57a108,108,0,0,1-5.35-17,178.36,178.36,0,0,1-3.84-41.87,10.35,10.35,0,0,0-.23-2c-.28-.69-.83-1.2-2.25-1.64A2.92,2.92,0,0,1,182.16,246.59Z"/><path class="cls-4" d="M311.52,231.79a12.26,12.26,0,0,1,3-2.06,7.93,7.93,0,0,1,1.46-.53c1.2-.26,2.2-.6,3.3-.17a5.35,5.35,0,0,0,2.39.25c1-.05,1.64,0,1.85.35s0,.87-.59,1.5-1.11,1.06-1.74,1.63c-4.33,3.5-8.65,7.07-13.19,10.37-2,1.28-2.51,2.46-2.25,4.05a44.3,44.3,0,0,1-.37,17.92,36.44,36.44,0,0,1-2.41,6.31,7.87,7.87,0,0,1-4.49,3.78,9.92,9.92,0,0,1-1.74.56c-7.39,1.84-12.94.85-15.83-3.34a17.15,17.15,0,0,1-1.69-2.53,25.94,25.94,0,0,1-3.52-10.51,11.08,11.08,0,0,0-.42-1.42c-2.72.08-5.38.26-8,.14-6.17-.17-10.1-1.72-11.91-5.13a12,12,0,0,1-.93-3.19c-1.68-8.3.81-16.46,7.6-24.17a18.14,18.14,0,0,1,7.4-5.12,22.34,22.34,0,0,1,8.4-1.29A26.85,26.85,0,0,1,291.52,223a26.23,26.23,0,0,1,8.45,8c1.69,2.7,2.54,4,4.26,6.73C306.73,235.8,309.06,233.83,311.52,231.79Zm-17.91,12a29.61,29.61,0,0,0-3.79-10.42,35.06,35.06,0,0,0-2.42-3.39,22.73,22.73,0,0,0-8-6.18c-1.42-.5-2.12-.75-3.05-.39a4.49,4.49,0,0,0-1.6,1.16,17.75,17.75,0,0,0-3.88,4.12,27.79,27.79,0,0,0-5.57,19.47,11.51,11.51,0,0,0,1.11,3.39l.24.44c1.51,2.72,3.54,3.19,7.76,1.63l.64-.24c.73-2.49,1.12-4.87,2.33-7.17a6.12,6.12,0,0,1,3.59-3.22,8.63,8.63,0,0,1,5.27-.34c2.33.61,4.61,1.47,7.34,2.35C293.62,244.4,293.81,244.05,293.61,243.74ZM290.09,271l-.65-1.07-.17.06.65,1.07ZM294,251.54l-5,2c-1.77.7-2.57,1.68-2.27,2.87.8,3.21,1.53,6.54,2.45,9.74a3.47,3.47,0,0,0,.56,1.24c.52.86,1.27,1.75,2,2.93C294.83,264.62,295.85,254.51,294,251.54Zm3.39-21.11a4.75,4.75,0,0,1-.7-1.44l-.31.13C296.67,229.54,297.08,229.9,297.41,230.43Z"/><path class="cls-4" d="M334.76,249a28.4,28.4,0,0,0,9.6,8.5,18.79,18.79,0,0,0,3.68-3.86,93.63,93.63,0,0,0,7.29-12.53,91.15,91.15,0,0,0,7.4-27.32,17.66,17.66,0,0,1,.81-3.28,4.25,4.25,0,0,1,1.95-2.09,9.31,9.31,0,0,1,4.95-1,6.14,6.14,0,0,0,1.85-.08,2.08,2.08,0,0,1,1.81.37,1.4,1.4,0,0,1,.18.74,2.37,2.37,0,0,1-.17,1.1c-1.1,11.79-4.48,22.27-8.72,33.22a56.49,56.49,0,0,1-6.45,10.75,16.23,16.23,0,0,1-6.13,5.31c-3.69,1.84-8.24,2.56-13.85,2.89a11,11,0,0,1-8.61-3.32A40.21,40.21,0,0,1,325.3,252c-5.32-7.72-8.84-15.87-10-24.51a25,25,0,0,1,1-12.53,23.06,23.06,0,0,1,4-6.11,7.91,7.91,0,0,1,2.75-2,15.86,15.86,0,0,1,8.88-1.15c4.14.51,6.92,1.84,8.52,4.05a8.51,8.51,0,0,1,1,2,31.24,31.24,0,0,1,1.47,19.57c-.74,3-1.25,4.62-3.42,5.69-1.54.77-4,1.16-8.06,1.6a14,14,0,0,0-2.15.48A76.55,76.55,0,0,0,334.76,249Zm-2.51-18.6c.67-6.07.8-12.18-1.22-17.91l-.14-.21c-.29-.4-.65-.63-.93-1-4.55,4.06-5.76,17-2.06,22.35l2.47-1.18C331.29,231.93,332.14,231.38,332.25,230.37Z"/><path class="cls-4" d="M383.39,201.68a89.88,89.88,0,0,1,.72-11.14,8.24,8.24,0,0,1,3.93-5.69,15.1,15.1,0,0,1,6.76-2.19,18.21,18.21,0,0,1,8.12,1c4.25,1.73,8.41,3.52,12.79,5a63.71,63.71,0,0,0,7.4,1.88,6.08,6.08,0,0,0,5-1.14,7.11,7.11,0,0,0,1.3-1.08,41.08,41.08,0,0,0,4.55-5.89c3.61-6.33,5-12.55,4.3-18.5a5.16,5.16,0,0,1,2.12-4.77,4.94,4.94,0,0,1,5.1-.6c.3-.39.82-.81,1.25-1.31a1.55,1.55,0,0,1,1.47.24,1.48,1.48,0,0,1,.43,1.07c1.75,10.26-2,20.39-9.21,27.78a30.7,30.7,0,0,1-3.88,3.31c-6.24,4.55-15.37,7.9-23.46,5.65-4.45-1.31-8.74-3-13.13-4.71-1.23-.37-2.39-.93-4.08-1.6-.15,1.57-.36,2.58-.41,3.78a117.58,117.58,0,0,0,1.66,26.57,48.08,48.08,0,0,1,1.05,6.14,2.65,2.65,0,0,1-1.17,2.87,6.61,6.61,0,0,1-1.37.54,6,6,0,0,0-1.28.63l-1.06.63a3.57,3.57,0,0,1-1,.45c-3.52,1.23-6.78,1.4-8.7-.9-1.13-1.34-2.55-2.51-3.67-3.85-3.19-4.13-6.51-8.18-9.64-12.34-.31-.39-.46-.59-.78-1a3.77,3.77,0,0,0-3.18-1.59,2.16,2.16,0,0,1-.91-.61c-.31-.39-.4-.77-.63-1.06-2-3.65-3.92-7.39-5.79-11.13a8.53,8.53,0,0,1,2.26-2.14c1.29-.74,2.62-.66,5.07-.94,2.66-.31,3.89.42,4.67,1.38.39.49.64,1.05,1,1.54,3.47,4.52,6.74,9,10,13.48l1.85,2.19.73-.43C383.55,209.36,383.34,205.41,383.39,201.68Zm.22,16.38c-2.93-3.47-4.39-5.21-7.27-8.71l-.29.18c2.88,3.49,4.33,5.24,7.26,8.71Z"/><path class="cls-4" d="M470.66,166a48.76,48.76,0,0,0,1.71-8.06,90.46,90.46,0,0,0-.38-26.38,53.15,53.15,0,0,0-1.42-6c1.17-.08,1.91-.09,2.87-.14a1.65,1.65,0,0,1,.52-1.66,6,6,0,0,1,2.22-.89c1.63-.35,3.36-.63,4.42.23a1.87,1.87,0,0,1,.57.65,13.9,13.9,0,0,1,1,2.64c2.54,11.31,1.78,22.18.53,33.55a27.3,27.3,0,0,1-2.14,7.07,13.11,13.11,0,0,1-3.22,4.66c-1.59,1.35-3.63,2.09-7,3-5.41,1.42-9.22.51-12-2-.37-.33-.61-.77-1-1.11-1.5-1.8-2.89-3.52-4.28-5.24-.37-.33-.51-.69-.88-1-.55-.5-1.37-.79-2.9.27a4.56,4.56,0,0,1-2.06-.1c-.5-.07-.77-.48-1.43,0-.31.25-.47.38-.79.62a1.86,1.86,0,0,1-2.45-.26l-.18-.17a28,28,0,0,1-1.67-3.85,57.24,57.24,0,0,1-2.33-16.51,5.21,5.21,0,0,1,1.86-4.19,8.38,8.38,0,0,1,4.51-1.48c2.15-.2,4.13.07,5.41,1.24a3.09,3.09,0,0,1,.8.93c1.58,3.16,3.19,6.34,5.08,9.37,3,4.81,6,10,9.21,14.57.9,1.27,2.41,2.32,4,3.9A17.72,17.72,0,0,0,470.66,166ZM431,119.31a4.67,4.67,0,0,1,3.73,1.19,7.08,7.08,0,0,1,1,1.38c1.94,4.15,4.07,8.28,6.36,12.76-2.17.38-4.13.72-6.38,1l-.5.41c-1.48,1.21-2.58,1.46-3.48.61a6.23,6.23,0,0,1-.91-1.32c-2-3.48-4.13-7.14-6-10.6a11,11,0,0,1-.8-3.14C428.88,119.48,429.29,119.43,431,119.31Zm30.36,52-1.77-1.58-.13.11,1.77,1.58Z"/><path class="cls-4" d="M488.5,92.49c-.86-4.76-2-9.47-2.71-14.24a34.93,34.93,0,0,1-.19-7.19,10.69,10.69,0,0,1,2.95-6.72,12.14,12.14,0,0,1,8.51-4.28,47.84,47.84,0,0,1,5.08-.07c-2.33,1.21-3.35,4.06-5.89,4.72a.72.72,0,0,0-.31.17,3.47,3.47,0,0,0-.72,1.74,39,39,0,0,0-.08,5.8c.38,6.9,2.1,13.35,4.08,19.67.72,2.47,1.53,4.83,2.11,7.42a3.65,3.65,0,0,0,1.26,1.89,3.42,3.42,0,0,0,1.65.59c4.08.52,8.06,1.52,12.42,1.31,3.51-.17,5.7-.93,6.82-2.16s1.47-3.48.78-6.2c-.78-3.06-2.79-5.74-4.41-8.55a8.34,8.34,0,0,0-1.12-1.51,1.81,1.81,0,0,1,.16-2.6l.21-.25c1.07-1,2.12-1.5,3.16-.82l.42.27c-.21-.52-.2-1.09-.4-1.8,1.26-.33,2.73-.92,4.1-1.2a2,2,0,0,1,1.47.16c.22.14.32.2.32.39a113.15,113.15,0,0,1,6,9.78,11.42,11.42,0,0,1,.65,4.7,8.94,8.94,0,0,1-2.53,5.68,10.31,10.31,0,0,1-1.44,1.44c-6.85,5.42-14.26,8.51-21.83,8.77-1.07,0-2.23,0-3.42.19-.1-.07-.21,0-.66.33a467.45,467.45,0,0,0,23,50.62,27.47,27.47,0,0,0-2.63,2l-.39.37a10.55,10.55,0,0,1-1.32,1.44c-2.22,2.11-4.44,2.67-6,1.56a4.17,4.17,0,0,1-1.12-1.48,455.48,455.48,0,0,1-23.08-54.92,5.54,5.54,0,0,0-2-2.89,8,8,0,0,0-2.32-1.15c-4.83-1.24-9.27-2.88-13.91-4.34a26.82,26.82,0,0,0-4.48-.77,26.49,26.49,0,0,0-.54,4.79,24.76,24.76,0,0,0,6.65,16.2l.48.39c1.55,1.25,3.54.56,5.56.5a9.1,9.1,0,0,0,2.18-.56,1.78,1.78,0,0,1-.37,2.4l-.36.34a36.66,36.66,0,0,1-5.48,3.13c-.48.21-1.09.17-1.54.42-3.62,2.51-6.24,1.4-8.24-.27l-.76-.64c-6.29-5.24-8.65-12.34-8.15-20.87a10,10,0,0,1,3.26-7,14.73,14.73,0,0,1,8.33-3.82,35.92,35.92,0,0,1,13.15.89c1.32.41,2.75.7,4.8,1.24A35.93,35.93,0,0,1,488.5,92.49ZM503.41,111a12.87,12.87,0,0,0-.65-1.27l-.23.24c.07.45.36.86.43,1.32A.91.91,0,0,0,503.41,111ZM493.6,65.86a14.39,14.39,0,0,0-.85,3.16,26.42,26.42,0,0,0,.28,6.27c1,8.35,3.35,16.08,5.7,23.93.19.33.48.74.67,1.08a5.46,5.46,0,0,0-.12-3.26c-1.27-5.26-2.61-10.69-3.85-16a43,43,0,0,1-1.12-15C494,66,493.9,65.89,493.6,65.86Z"/></g></g></svg>