<svg xmlns="http://www.w3.org/2000/svg" viewBox="0 0 250.28 77.08"><defs><style>.cls-1{fill:#fff;}.cls-2{fill:none;stroke:#fff;stroke-miterlimit:10;}</style></defs><g id="Layer_2" data-name="Layer 2"><g id="Layer_1-2" data-name="Layer 1"><path class="cls-1" d="M13,21.3q0-3.3-5.63-4.49A11.09,11.09,0,0,1,2.68,15a3.86,3.86,0,0,1-1.33-3.11A4,4,0,0,1,3,8.56,7,7,0,0,1,7.42,7.27a7.44,7.44,0,0,1,4.71,1.4,4.56,4.56,0,0,1,1.77,3.78H13a3.74,3.74,0,0,0-1.54-3,6.31,6.31,0,0,0-4-1.22,6.11,6.11,0,0,0-3.77,1,3.12,3.12,0,0,0-1.39,2.59,3.11,3.11,0,0,0,.52,1.92A4.34,4.34,0,0,0,4.47,15a17.85,17.85,0,0,0,3.42,1.08,14.64,14.64,0,0,1,3.55,1.22A4.82,4.82,0,0,1,13.33,19a4.38,4.38,0,0,1,.59,2.36,4.1,4.1,0,0,1-1.76,3.45,7.54,7.54,0,0,1-4.61,1.3,8.1,8.1,0,0,1-4.92-1.38A4.25,4.25,0,0,1,.77,21.13h.9a3.75,3.75,0,0,0,1.69,3,7.28,7.28,0,0,0,4.19,1.06,6.47,6.47,0,0,0,4-1.13A3.35,3.35,0,0,0,13,21.3Z"/><path class="cls-1" d="M25.06,25.17a6.23,6.23,0,0,0,4.07-1.31,4.87,4.87,0,0,0,1.75-3.62h.9a5.61,5.61,0,0,1-2,4.23,7,7,0,0,1-4.7,1.6,6.6,6.6,0,0,1-5.4-2.46,10.25,10.25,0,0,1-2-6.68v-.61a10.07,10.07,0,0,1,2-6.58A6.55,6.55,0,0,1,25,7.27,6.77,6.77,0,0,1,29.79,9a6.28,6.28,0,0,1,2,4.59h-.9a5.49,5.49,0,0,0-1.72-3.93A5.83,5.83,0,0,0,25,8.18a5.73,5.73,0,0,0-4.75,2.18,9.6,9.6,0,0,0-1.72,6.08V17a9.31,9.31,0,0,0,1.74,6A5.74,5.74,0,0,0,25.06,25.17Z"/><path class="cls-1" d="M44.32,8.28l-1.17-.1a5.33,5.33,0,0,0-3.87,1.5,7.42,7.42,0,0,0-2.05,4.19V25.74h-.9V7.61h.9v3.77a6.71,6.71,0,0,1,2.21-3,6,6,0,0,1,3.71-1.11,3.69,3.69,0,0,1,1.27.19Z"/><path class="cls-1" d="M46.1,16.32a10.7,10.7,0,0,1,1-4.67,7.77,7.77,0,0,1,2.82-3.22A7.5,7.5,0,0,1,54,7.27,7.6,7.6,0,0,1,58.11,8.4a7.48,7.48,0,0,1,2.82,3.18,10.44,10.44,0,0,1,1,4.64V17a10.64,10.64,0,0,1-1,4.67,7.62,7.62,0,0,1-2.81,3.22,7.49,7.49,0,0,1-4.11,1.15,7.45,7.45,0,0,1-6.94-4.33,10.48,10.48,0,0,1-1-4.61ZM47,17a9.47,9.47,0,0,0,.9,4.14,7,7,0,0,0,2.49,2.94,6.47,6.47,0,0,0,3.67,1.06,6.3,6.3,0,0,0,5-2.33,9,9,0,0,0,2-6v-.52a9.48,9.48,0,0,0-.9-4.12,7.23,7.23,0,0,0-2.51-3A6.41,6.41,0,0,0,54,8.18,6.3,6.3,0,0,0,49,10.54a9,9,0,0,0-2,5.95Z"/><path class="cls-1" d="M67.48,25.74h-.91V0h.91Z"/><path class="cls-1" d="M74.55,25.74h-.91V0h.91Z"/><path class="cls-1" d="M90.74,2.71v4.9h4.12v.9H90.74V21.4a5.14,5.14,0,0,0,.63,2.85,2.36,2.36,0,0,0,2.1.92A13,13,0,0,0,95.26,25l.15.85a6,6,0,0,1-1.89.2A3.37,3.37,0,0,1,90.69,25a5.74,5.74,0,0,1-.87-3.47v-13H86.46v-.9h3.36V2.71Z"/><path class="cls-1" d="M97.86,16.32a10.56,10.56,0,0,1,1-4.67,7.68,7.68,0,0,1,2.81-3.22,7.65,7.65,0,0,1,11,3.15,10.58,10.58,0,0,1,1,4.64V17a10.64,10.64,0,0,1-1,4.67,7.62,7.62,0,0,1-2.81,3.22,7.49,7.49,0,0,1-4.11,1.15,7.45,7.45,0,0,1-6.94-4.33,10.48,10.48,0,0,1-1-4.61Zm.9.71a9.47,9.47,0,0,0,.9,4.14,7,7,0,0,0,2.5,2.94,6.44,6.44,0,0,0,3.66,1.06,6.28,6.28,0,0,0,5.05-2.33,9,9,0,0,0,1.95-6v-.52a9.48,9.48,0,0,0-.9-4.12,7.16,7.16,0,0,0-2.51-3,6.36,6.36,0,0,0-3.62-1.06,6.27,6.27,0,0,0-5.06,2.36,9,9,0,0,0-2,5.95Z"/><path class="cls-1" d="M132.48,25.17a6.2,6.2,0,0,0,4.06-1.31,4.85,4.85,0,0,0,1.76-3.62h.9a5.62,5.62,0,0,1-2,4.23,7,7,0,0,1-4.69,1.6,6.59,6.59,0,0,1-5.4-2.46,10.26,10.26,0,0,1-2-6.68v-.61a10.08,10.08,0,0,1,2-6.58,6.53,6.53,0,0,1,5.37-2.47A6.77,6.77,0,0,1,137.21,9a6.32,6.32,0,0,1,2,4.59h-.9a5.52,5.52,0,0,0-1.72-3.93,5.84,5.84,0,0,0-4.13-1.48,5.72,5.72,0,0,0-4.75,2.18A9.6,9.6,0,0,0,126,16.44V17a9.36,9.36,0,0,0,1.73,6A5.77,5.77,0,0,0,132.48,25.17Z"/><path class="cls-1" d="M142.37,16.32a10.7,10.7,0,0,1,1-4.67,7.77,7.77,0,0,1,2.82-3.22,7.5,7.5,0,0,1,4.11-1.16,7.51,7.51,0,0,1,6.92,4.31,10.58,10.58,0,0,1,1,4.64V17a10.64,10.64,0,0,1-1,4.67,7.62,7.62,0,0,1-2.81,3.22,7.49,7.49,0,0,1-4.11,1.15,7.45,7.45,0,0,1-6.94-4.33,10.48,10.48,0,0,1-1-4.61Zm.9.71a9.47,9.47,0,0,0,.9,4.14,7,7,0,0,0,2.5,2.94,6.42,6.42,0,0,0,3.66,1.06,6.3,6.3,0,0,0,5-2.33,9,9,0,0,0,2-6v-.52a9.48,9.48,0,0,0-.9-4.12,7.23,7.23,0,0,0-2.51-3,6.39,6.39,0,0,0-3.63-1.06,6.3,6.3,0,0,0-5.06,2.36,9.05,9.05,0,0,0-2,5.95Z"/><path class="cls-1" d="M163.53,11.83a7.53,7.53,0,0,1,2.62-3.33A6.42,6.42,0,0,1,170,7.27a5.41,5.41,0,0,1,4.33,1.65,7.6,7.6,0,0,1,1.43,5V25.74h-.9V13.89a6.66,6.66,0,0,0-1.19-4.31,4.56,4.56,0,0,0-3.72-1.4,5.65,5.65,0,0,0-4.07,1.66,8.5,8.5,0,0,0-2.32,4.3v11.6h-.9V7.61h.9Z"/><path class="cls-1" d="M183.44,2.71v4.9h4.12v.9h-4.12V21.4a5.14,5.14,0,0,0,.63,2.85,2.37,2.37,0,0,0,2.1.92A13,13,0,0,0,188,25l.16.85a6,6,0,0,1-1.9.2A3.37,3.37,0,0,1,183.39,25a5.74,5.74,0,0,1-.87-3.47v-13h-3.35v-.9h3.35V2.71Z"/><path class="cls-1" d="M192,1.94a.93.93,0,0,1,.27-.66.93.93,0,0,1,1.31,0,.9.9,0,0,1,.28.66.87.87,0,0,1-.28.66A.93.93,0,0,1,192,1.94Zm1.37,23.8h-.9V7.61h.9Z"/><path class="cls-1" d="M200.25,11.83a7.51,7.51,0,0,1,2.61-3.33,6.45,6.45,0,0,1,3.82-1.23A5.42,5.42,0,0,1,211,8.92a7.6,7.6,0,0,1,1.43,5V25.74h-.91V13.89a6.6,6.6,0,0,0-1.19-4.31,4.56,4.56,0,0,0-3.72-1.4,5.63,5.63,0,0,0-4.06,1.66,8.43,8.43,0,0,0-2.32,4.3v11.6h-.91V7.61h.91Z"/><path class="cls-1" d="M230.28,25.74V22.81a5.91,5.91,0,0,1-2.35,2.38,7.76,7.76,0,0,1-3.9.88,5.52,5.52,0,0,1-4.45-1.73,7.68,7.68,0,0,1-1.52-5.05V7.61H219V19.32a6.66,6.66,0,0,0,1.3,4.37A4.63,4.63,0,0,0,224,25.17,6.89,6.89,0,0,0,228.22,24a5.56,5.56,0,0,0,2.06-3.59V7.61h.92V25.74Z"/><path class="cls-1" d="M243.43,26.07a7.3,7.3,0,0,1-4-1.18,8.07,8.07,0,0,1-2.87-3.24,10,10,0,0,1-1-4.57v-.76a10.55,10.55,0,0,1,1-4.61,8.08,8.08,0,0,1,2.77-3.26,6.72,6.72,0,0,1,3.84-1.18,6.35,6.35,0,0,1,5,2.16A8.27,8.27,0,0,1,250,15.12v1H236.39v1a9.13,9.13,0,0,0,.93,4.09,7.33,7.33,0,0,0,2.57,3,6.37,6.37,0,0,0,3.54,1.07,7.13,7.13,0,0,0,3.11-.61,6.26,6.26,0,0,0,2.27-1.87l.64.45A6.83,6.83,0,0,1,243.43,26.07ZM243.1,8.18a5.89,5.89,0,0,0-4.49,2,8.41,8.41,0,0,0-2.17,5h12.64V15a7.67,7.67,0,0,0-.78-3.43,6,6,0,0,0-2.14-2.46A5.52,5.52,0,0,0,243.1,8.18Z"/><polyline class="cls-2" points="0.14 39.95 124.8 76.56 250.14 39.95"/></g></g></svg>